<?xml version="1.0" standalone="no"?>
<!DOCTYPE svg PUBLIC "-//W3C//DTD SVG 20010904//EN"
 "http://www.w3.org/TR/2001/REC-SVG-20010904/DTD/svg10.dtd">
<svg version="1.0" xmlns="http://www.w3.org/2000/svg"
  viewBox="0 0 300.000000 300.000000"
 preserveAspectRatio="xMidYMid meet">
<metadata>
Created by potrace 1.10, written by Peter Selinger 2001-2011
</metadata>
<g transform="translate(0.000000,300.000000) scale(0.100000,-0.100000)"
fill="#000000" stroke="none">
<path d="M1271 2715 c-52 -82 -80 -206 -55 -246 15 -26 3 -93 -30 -160 l-35
-70 -10 36 c-15 55 -54 115 -110 170 -28 27 -51 54 -51 61 0 21 -42 64 -82 85
-22 11 -65 23 -95 26 l-55 6 17 -39 c9 -21 23 -47 33 -57 28 -32 89 -57 136
-57 39 0 50 -5 89 -44 25 -23 50 -53 56 -64 11 -20 10 -21 -14 -12 -15 6 -50
10 -79 10 -28 0 -57 5 -62 10 -15 15 -44 1 -44 -21 0 -25 27 -36 51 -21 26 16
103 15 143 -2 44 -18 62 -74 70 -213 13 -226 110 -398 288 -513 86 -56 96 -57
169 -18 123 65 245 215 288 353 23 74 38 195 23 195 -5 0 -13 -26 -16 -57 -16
-132 -70 -257 -153 -352 -49 -56 -183 -151 -212 -151 -29 0 -168 98 -216 153
-153 174 -198 465 -94 607 22 29 109 80 137 80 8 0 32 -16 54 -35 86 -73 214
-85 306 -28 51 32 65 53 30 46 -14 -2 -57 13 -106 37 -57 27 -97 40 -125 40
-44 0 -177 -39 -239 -70 l-38 -18 0 22 c0 12 13 40 29 62 40 56 51 96 51 188
0 110 -10 122 -49 61z m27 -82 c-3 -66 -10 -98 -27 -128 -23 -41 -23 -40 -6
45 10 50 -4 31 -20 -27 l-13 -48 -1 54 c-1 41 7 71 30 123 18 37 34 68 37 68
2 0 2 -39 0 -87z m-446 -45 c21 -6 55 -26 75 -43 32 -28 35 -34 23 -47 -26
-27 -99 0 -144 53 -43 50 -31 60 46 37z m758 -164 c25 -15 61 -32 80 -39 l35
-13 -45 -21 c-61 -28 -132 -27 -195 3 -27 13 -59 33 -70 46 l-20 23 59 -8 c33
-4 71 -11 84 -16 14 -5 27 -8 29 -5 9 9 -39 27 -89 33 -63 8 -40 21 37 22 36
1 62 -6 95 -25z"/>
<path d="M1677 2137 c-45 -14 -107 -62 -107 -82 0 -22 9 -18 32 10 37 48 114
71 181 56 28 -7 37 -6 37 4 0 7 -17 15 -37 19 -49 8 -60 7 -106 -7z"/>
<path d="M1240 2130 c0 -6 28 -10 63 -10 82 0 132 -15 157 -47 17 -21 20 -40
20 -114 0 -96 11 -119 56 -119 33 0 30 18 -3 22 l-28 3 -5 101 c-6 113 -12
127 -75 155 -44 20 -185 27 -185 9z"/>
<path d="M1277 2054 c-3 -3 -3 -12 0 -20 3 -8 -1 -14 -11 -14 -9 0 -16 -5 -16
-11 0 -7 10 -9 28 -5 26 6 26 6 5 -7 -16 -9 -20 -16 -13 -27 8 -12 15 -13 40
-3 26 10 30 10 20 -2 -6 -8 -7 -16 -2 -19 6 -3 15 1 22 9 8 10 30 15 61 15 70
0 60 17 -13 22 -54 4 -65 8 -88 36 -15 18 -29 29 -33 26z"/>
<path d="M1749 2027 c-23 -28 -32 -31 -92 -35 -75 -5 -81 -22 -8 -22 31 0 53
-5 61 -15 7 -8 17 -12 23 -8 6 4 3 12 -9 21 -18 14 -18 14 1 7 44 -16 57 -17
66 -4 5 9 1 18 -14 26 -21 13 -21 13 6 7 17 -4 27 -2 27 5 0 6 -7 11 -16 11
-10 0 -14 6 -11 15 11 28 -9 23 -34 -8z"/>
<path d="M943 2022 c-18 -11 0 -189 25 -244 25 -57 85 -124 131 -147 20 -10
60 -24 89 -31 28 -6 54 -15 57 -19 2 -5 -19 -2 -48 6 -72 19 -110 12 -217 -41
-57 -28 -106 -46 -128 -46 -34 0 -34 -1 -18 -19 9 -10 40 -31 69 -47 47 -26
61 -29 147 -29 106 0 147 15 219 80 21 19 43 35 48 35 11 0 49 -74 57 -112 3
-16 8 -39 11 -53 9 -44 26 -28 19 18 -20 131 -110 227 -236 251 -34 6 -38 10
-38 37 0 39 -30 97 -70 134 l-33 30 6 -50 c3 -27 9 -59 12 -70 7 -20 7 -20
-10 0 -35 40 -68 128 -73 191 -4 56 -2 67 14 79 15 11 17 18 8 31 -13 21 -25
26 -41 16z m158 -315 c9 -21 9 -31 1 -39 -8 -8 -17 0 -31 33 -12 24 -21 53
-21 64 0 18 2 18 20 -5 11 -14 25 -38 31 -53z m110 -139 l52 -12 -69 -12 c-69
-12 -130 -31 -123 -38 2 -3 29 2 59 10 30 8 79 14 110 14 l55 -1 -30 -25 c-16
-14 -58 -39 -93 -56 -56 -27 -70 -30 -135 -26 -48 3 -88 12 -121 28 -47 23
-48 24 -25 33 13 5 64 29 113 53 95 47 123 51 207 32z"/>
<path d="M2081 2016 c-12 -15 -5 -46 11 -46 22 0 3 -142 -27 -203 -28 -56 -69
-107 -51 -62 5 11 11 43 13 70 l5 50 -32 -30 c-37 -34 -69 -98 -70 -136 0 -23
-6 -28 -46 -38 -132 -33 -203 -114 -228 -258 -4 -24 -2 -33 8 -33 8 0 15 18
19 49 6 49 37 124 57 136 6 4 31 -12 56 -34 120 -106 304 -108 427 -5 l29 24
-41 0 c-29 0 -66 13 -127 45 -100 53 -148 62 -221 42 -29 -8 -50 -11 -48 -6 3
4 29 13 57 19 158 37 232 133 248 318 6 71 5 99 -3 104 -17 11 -23 10 -36 -6z
m-81 -293 c-15 -45 -29 -65 -41 -57 -15 9 -10 28 18 72 31 48 41 41 23 -15z
m90 -201 l105 -51 -50 -23 c-32 -14 -76 -24 -123 -26 -66 -4 -79 -1 -135 27
-34 17 -75 42 -92 56 l-30 25 61 0 c33 0 83 -7 109 -15 27 -8 51 -12 53 -10 8
8 -51 27 -123 39 l-69 12 44 11 c80 20 136 10 250 -45z"/>
<path d="M1466 1783 l-30 -16 34 -30 c28 -25 38 -29 74 -24 36 5 76 34 76 56
0 13 -63 31 -75 21 -6 -5 -16 -5 -25 0 -18 12 -18 12 -54 -7z m109 -43 c-3 -5
-21 -10 -40 -10 -19 0 -37 5 -40 10 -4 6 12 10 40 10 28 0 44 -4 40 -10z"/>
<path d="M1456 1259 c-30 -24 -35 -69 -10 -93 23 -24 50 -19 74 11 20 26 20
28 3 34 -10 4 -20 4 -23 1 -3 -2 1 -7 8 -9 21 -8 13 -25 -9 -21 -38 5 -46 33
-21 68 26 35 16 39 -22 9z"/>
<path d="M1583 1269 c9 -5 24 -24 33 -41 22 -42 13 -101 -26 -178 -17 -33 -28
-60 -25 -60 2 0 21 31 40 70 44 88 47 144 9 189 -14 17 -31 31 -37 31 -7 0 -4
-5 6 -11z"/>
<path d="M1503 1263 c-22 -8 -14 -22 14 -25 38 -4 57 -46 48 -105 -4 -25 -33
-96 -66 -159 -56 -107 -71 -154 -49 -154 6 0 6 -9 -1 -26 -15 -40 -5 -39 14 2
10 19 13 33 7 29 -21 -13 -8 19 57 147 54 105 68 142 71 187 3 46 0 61 -18 84
-20 25 -47 33 -77 20z"/>
<path d="M1970 1249 c0 -5 -5 -7 -11 -3 -12 7 -99 -74 -99 -93 0 -16 12 -17
28 -1 9 9 12 -28 12 -167 0 -152 -2 -181 -17 -197 -15 -17 -15 -20 7 -43 21
-23 26 -24 39 -11 13 14 12 18 -4 36 -14 15 -16 23 -8 28 9 5 13 63 13 192 1
167 0 185 -15 183 -13 -1 -10 7 12 29 l28 29 3 -65 c4 -94 22 -82 22 14 0 44
-2 80 -5 80 -3 0 -5 -5 -5 -11z"/>
<path d="M547 1226 c4 -5 -5 -6 -21 -2 -55 14 -146 -58 -146 -115 0 -45 41
-74 68 -47 9 9 6 14 -11 22 -38 19 -33 53 13 97 22 21 49 39 58 39 11 0 6 -6
-13 -16 -16 -8 -34 -19 -39 -25 -15 -14 5 -11 34 6 37 21 138 19 180 -4 75
-39 96 -136 47 -210 -33 -50 -20 -54 21 -6 69 78 49 195 -41 242 -36 18 -159
34 -150 19z"/>
<path d="M715 1226 c41 -18 95 -81 97 -114 4 -79 -16 -129 -74 -177 -17 -14
-28 -28 -25 -31 9 -10 78 59 98 97 25 50 25 125 -1 163 -20 32 -85 76 -110 76
-8 -1 -1 -7 15 -14z"/>
<path d="M1302 1227 c9 -7 21 -40 27 -73 13 -72 66 -243 82 -264 10 -13 10
-13 6 1 -3 8 -17 53 -32 100 -14 46 -32 113 -40 149 -12 58 -12 67 2 82 15 17
14 18 -23 18 -34 -1 -37 -2 -22 -13z"/>
<path d="M1220 1220 c0 -5 7 -13 15 -18 9 -5 22 -38 30 -78 20 -96 50 -191 97
-312 36 -92 42 -102 55 -89 13 13 11 25 -20 103 -46 117 -82 234 -97 314 -7
36 -17 71 -23 78 -11 14 -57 16 -57 2z"/>
<path d="M1751 1211 c-33 -9 -49 -36 -35 -58 16 -26 40 -27 63 -2 38 41 23 72
-28 60z m27 -34 c2 -10 -3 -17 -11 -17 -16 0 -30 24 -19 34 10 10 27 1 30 -17z"/>
<path d="M485 1144 c-37 -27 -43 -35 -25 -31 l25 6 -3 -172 c-2 -136 -6 -174
-17 -183 -28 -21 -15 -30 43 -30 39 1 56 5 54 14 -1 6 3 12 10 12 9 0 9 3 0
12 -7 7 -12 30 -13 52 0 31 -2 36 -8 21 -5 -11 -4 -33 0 -50 5 -16 9 -31 9
-32 0 -2 -16 -3 -36 -3 -30 0 -34 2 -25 14 8 10 11 69 11 191 -2 163 0 178 17
190 19 13 19 11 15 -68 -2 -45 1 -93 6 -107 8 -19 11 1 14 88 4 131 1 133 -77
76z"/>
<path d="M1736 1078 c-23 -19 -15 -24 14 -8 17 9 20 6 24 -22 3 -18 7 -90 8
-161 l3 -127 -34 0 c-32 0 -33 1 -18 18 14 15 17 41 17 140 0 112 -2 122 -21
132 -15 9 -24 8 -35 -1 -14 -11 -13 -13 0 -21 13 -7 16 -31 16 -133 0 -72 -4
-126 -10 -130 -5 -3 -10 -12 -10 -19 0 -9 16 -12 53 -11 34 1 51 5 50 13 -2 7
2 12 8 12 8 0 8 4 0 14 -8 10 -11 61 -9 169 3 148 2 155 -16 154 -11 -1 -29
-9 -40 -19z"/>
<path d="M2053 1093 c-35 -5 -96 -54 -75 -61 10 -3 10 -7 1 -19 -8 -9 -13 -50
-13 -108 -1 -78 2 -97 16 -110 10 -8 13 -10 8 -3 -13 16 -13 194 0 218 13 24
71 36 99 21 64 -35 67 -174 4 -243 -22 -25 2 -23 26 1 68 68 75 203 13 251
-30 24 -83 26 -120 3 l-27 -16 25 26 c38 39 103 40 148 2 69 -58 63 -183 -13
-261 -35 -37 -48 -44 -81 -44 -21 0 -52 7 -68 15 -23 12 -31 13 -37 3 -11 -18
-3 -26 40 -39 100 -30 204 65 217 197 10 112 -56 181 -163 167z"/>
<path d="M980 1072 c-92 -49 -124 -180 -65 -265 l22 -32 -20 -36 c-35 -62 3
-103 51 -55 15 14 21 26 14 26 -6 0 -12 -4 -12 -10 0 -5 -7 -10 -15 -10 -19 0
-19 33 0 71 15 28 15 32 -6 61 -33 45 -37 123 -10 175 22 45 65 83 90 82 11 0
10 -3 -5 -9 -34 -13 -41 -32 -10 -24 33 8 72 -2 79 -20 3 -8 -19 -49 -49 -92
-50 -73 -64 -104 -46 -104 4 0 20 20 35 45 16 25 34 42 39 38 7 -3 8 -1 4 6
-10 15 13 43 27 34 5 -3 7 -1 4 5 -4 5 0 23 10 39 27 48 9 70 -72 87 -20 4
-41 0 -65 -12z"/>
<path d="M1133 1072 c31 -19 33 -29 10 -62 -10 -16 0 -10 25 15 l42 39 -48 13
c-61 16 -62 16 -29 -5z"/>
<path d="M2345 1071 c-90 -55 -119 -162 -70 -255 23 -44 24 -48 9 -71 -20 -31
-15 -79 9 -83 20 -4 64 35 52 46 -3 3 -10 0 -15 -8 -8 -12 -12 -12 -22 -2 -11
11 -9 20 9 53 l22 40 -25 36 c-18 28 -24 49 -24 92 1 53 19 106 37 106 4 1 18
6 31 13 30 17 82 11 96 -10 8 -14 0 -31 -40 -90 -65 -94 -66 -96 -55 -102 8
-5 102 120 132 175 17 32 -5 56 -61 68 -28 6 -52 11 -53 11 -1 0 -15 -8 -32
-19z"/>
<path d="M2498 1075 c17 -12 23 -24 19 -41 -4 -21 -2 -23 12 -12 9 7 21 20 28
28 9 12 7 16 -15 21 -15 4 -36 10 -47 14 -16 6 -16 4 3 -10z"/>
<path d="M2311 940 c0 -25 3 -51 8 -59 5 -8 7 5 4 35 -6 68 -11 77 -12 24z"/>
<path d="M567 943 c-4 -3 -7 -19 -7 -34 0 -29 8 -34 69 -41 21 -3 26 -11 36
-54 17 -75 44 -116 95 -141 51 -27 92 -29 110 -8 11 13 7 15 -29 15 -35 0 -49
7 -83 38 -34 32 -43 50 -58 108 -16 68 -17 69 -48 66 -43 -4 -75 14 -67 39 6
18 -5 26 -18 12z"/>
<path d="M610 930 c0 -11 48 -25 56 -17 4 3 3 10 -1 16 -8 14 -55 14 -55 1z"/>
<path d="M725 860 c14 -47 47 -119 60 -130 8 -6 0 22 -17 62 -31 75 -57 116
-43 68z"/>
<path d="M2570 842 c-8 -3 -30 -18 -48 -33 -38 -33 -49 -35 -99 -14 -38 16
-58 14 -26 -3 44 -24 92 -25 130 -2 l38 22 -27 -28 c-34 -35 -109 -44 -157
-20 -29 15 -32 15 -38 0 -14 -38 84 -55 149 -26 61 27 132 122 78 104z"/>
<path d="M1174 825 c-3 -7 -20 -20 -37 -30 -29 -15 -36 -15 -77 -1 -37 12 -42
12 -26 1 36 -27 82 -29 123 -6 l38 22 -33 -31 c-25 -24 -41 -30 -75 -30 -23 0
-54 6 -69 14 -23 12 -29 12 -38 1 -9 -10 -7 -16 7 -23 69 -36 143 -20 202 43
22 24 41 46 41 49 0 10 -52 2 -56 -9z"/>
<path d="M840 706 c0 -10 9 -16 21 -16 24 0 21 23 -4 28 -10 2 -17 -3 -17 -12z"/>
<path d="M570 541 c0 -39 1 -41 31 -41 29 0 30 2 27 38 -3 32 -7 37 -30 40
-27 3 -28 1 -28 -37z"/>
<path d="M990 561 c-12 -23 0 -56 22 -64 17 -6 48 11 48 26 0 8 -3 8 -9 -1
-13 -21 -46 -10 -49 16 -4 27 22 40 45 21 14 -12 16 -12 11 1 -8 24 -55 25
-68 1z"/>
<path d="M1595 570 c-4 -6 -4 -14 -1 -17 3 -3 0 -13 -6 -21 -16 -19 13 -41 46
-35 18 4 22 10 19 24 -3 11 -8 17 -11 14 -7 -7 -32 15 -32 29 0 6 5 4 11 -4 9
-12 10 -12 7 -1 -5 19 -24 25 -33 11z"/>
<path d="M1701 538 c1 -24 3 -36 6 -27 5 21 53 32 53 13 0 -17 33 -35 47 -26
5 4 13 14 16 22 4 12 6 11 6 -2 1 -28 21 -21 21 7 0 14 5 25 10 25 10 0 14
-15 11 -34 -3 -13 20 -25 36 -19 18 7 17 33 -1 33 -8 0 -18 5 -22 12 -5 8 0 9
14 6 12 -4 20 -3 17 2 -7 11 -74 10 -81 -1 -3 -6 -12 -5 -21 2 -11 10 -19 10
-33 1 -15 -9 -19 -7 -23 9 -3 13 -14 19 -31 19 -24 0 -26 -3 -25 -42z m47 15
c2 -8 -5 -13 -17 -13 -12 0 -21 6 -21 16 0 18 31 15 38 -3z"/>
<path d="M2130 540 c0 -22 5 -40 10 -40 6 0 10 18 10 40 0 22 -4 40 -10 40 -5
0 -10 -18 -10 -40z"/>
<path d="M2203 573 c-7 -2 -13 -18 -13 -33 0 -38 29 -55 58 -34 13 9 23 11 27
4 3 -5 17 -10 31 -10 22 0 25 4 22 28 -2 19 -9 28 -25 30 -13 2 -23 -2 -23 -8
0 -6 5 -8 11 -4 12 7 31 -15 23 -28 -3 -4 -13 -8 -22 -7 -14 0 -13 2 3 9 16 6
14 8 -12 7 -18 0 -33 -4 -33 -9 0 -20 -45 -3 -48 18 -3 24 25 41 42 24 16 -16
30 -12 16 5 -12 15 -34 18 -57 8z"/>
<path d="M844 548 c3 -13 6 -29 6 -35 0 -7 4 -13 9 -13 4 0 6 12 4 28 l-4 27
16 -29 c14 -24 15 -30 3 -37 -9 -6 -10 -9 -1 -9 7 0 22 18 33 40 11 22 16 40
11 40 -5 0 -13 -10 -17 -22 -6 -20 -7 -21 -17 -2 -21 38 -53 46 -43 12z"/>
<path d="M644 546 c-10 -26 4 -48 28 -44 17 2 23 10 23 28 0 18 -6 26 -23 28
-13 2 -25 -3 -28 -12z"/>
<path d="M714 549 c-4 -7 0 -9 13 -5 14 4 19 1 20 -14 1 -13 -4 -20 -15 -20
-15 0 -15 2 -2 10 13 8 12 10 -2 10 -10 0 -18 -7 -18 -15 0 -10 10 -15 28 -15
26 0 28 3 24 30 -4 31 -33 42 -48 19z"/>
<path d="M779 556 c-3 -4 -4 -18 -1 -31 3 -18 11 -25 28 -25 21 0 24 5 23 33
-2 30 -2 30 -6 5 -5 -35 -31 -36 -35 -2 -2 14 -6 23 -9 20z"/>
<path d="M1074 546 c-10 -26 4 -48 28 -44 17 2 23 10 23 28 0 18 -6 26 -23 28
-13 2 -25 -3 -28 -12z m44 -19 c2 -12 -3 -17 -17 -17 -12 0 -21 6 -21 13 0 31
32 34 38 4z"/>
<path d="M1142 533 c2 -31 14 -44 35 -36 18 7 17 33 -1 33 -8 0 -18 5 -22 11
-4 8 1 9 16 4 15 -5 20 -4 16 4 -4 6 -16 11 -26 11 -15 0 -19 -6 -18 -27z"/>
<path d="M1201 528 c1 -30 2 -30 8 -9 10 36 31 38 32 4 1 -28 1 -28 8 -3 9 31
36 33 35 3 0 -13 3 -23 8 -23 5 0 8 12 6 28 -3 25 -7 27 -50 30 l-48 2 1 -32z"/>
<path d="M1317 553 c-12 -11 -7 -51 6 -56 17 -6 32 3 39 24 10 26 -26 52 -45
32z"/>
<path d="M1437 553 c-4 -3 -7 -16 -7 -29 0 -25 20 -36 40 -24 8 5 21 5 31 0
11 -6 23 -4 35 5 18 13 18 14 -8 24 -32 12 -38 26 -8 18 11 -3 20 -1 20 5 0
14 -43 5 -48 -10 -2 -6 6 -16 19 -20 17 -7 12 -9 -25 -9 -37 0 -46 3 -44 16 2
9 11 15 21 15 9 -1 14 2 11 7 -6 11 -28 12 -37 2z"/>
<path d="M1937 554 c-11 -12 -8 -41 6 -53 19 -15 50 9 45 35 -3 19 -38 31 -51
18z m41 -27 c2 -12 -3 -17 -17 -17 -12 0 -21 6 -21 13 0 31 32 34 38 4z"/>
<path d="M2001 528 c1 -30 2 -30 8 -9 9 35 29 37 34 4 4 -27 4 -27 6 5 1 28
-2 32 -24 32 -22 0 -25 -4 -24 -32z"/>
<path d="M2076 551 c-3 -5 3 -7 14 -4 29 8 25 -6 -6 -17 -30 -12 -23 -30 12
-30 22 0 25 4 22 27 -3 28 -30 43 -42 24z"/>
<path d="M2341 527 c1 -29 2 -30 8 -8 9 34 31 39 31 8 0 -14 6 -27 14 -30 21
-8 49 16 44 39 -2 15 -13 19 -51 21 -47 2 -47 2 -46 -30z"/>
</g>
</svg>
